<?xml version="1.0" standalone="no"?>
<!DOCTYPE svg PUBLIC "-//W3C//DTD SVG 20010904//EN"
 "http://www.w3.org/TR/2001/REC-SVG-20010904/DTD/svg10.dtd">
<svg version="1.0" xmlns="http://www.w3.org/2000/svg"
 width="444.000000pt" height="444.000000pt" viewBox="0 0 444.000000 444.000000"
 preserveAspectRatio="xMidYMid meet">
<metadata>
Created by potrace 1.11, written by Peter Selinger 2001-2013
</metadata>
<g transform="translate(0.000000,444.000000) scale(0.100000,-0.100000)"
fill="#000000" stroke="none">
<path d="M1874 3680 c-55 -28 -81 -54 -92 -93 -5 -18 -23 -47 -41 -64 -30 -31
-35 -47 -32 -108 1 -35 36 -122 58 -147 14 -16 13 -19 -17 -35 -52 -28 -110
-83 -117 -112 -3 -14 -17 -40 -30 -58 -43 -57 -31 -128 36 -202 61 -67 90
-176 58 -218 -13 -18 1 -53 19 -46 12 4 12 8 4 13 -8 5 -9 9 -2 11 6 2 14 20
17 39 3 19 11 40 17 45 7 7 9 6 4 -2 -3 -6 -1 -15 5 -19 8 -4 9 -3 5 4 -4 7
-2 12 4 12 6 0 9 4 5 9 -3 5 0 13 6 17 8 4 7 9 -2 15 -11 7 -11 9 -1 9 7 0 10
5 7 10 -3 6 0 10 7 10 9 0 9 3 -2 10 -9 6 -10 10 -3 10 8 0 9 8 1 33 -26 77
-35 94 -75 144 -24 29 -43 57 -43 62 0 5 -5 11 -10 13 -6 2 3 18 20 36 16 18
30 28 30 22 0 -6 4 -9 10 -5 5 3 8 11 6 18 -1 7 -1 9 1 5 3 -5 9 -8 14 -8 11
0 11 11 0 29 -7 10 -13 11 -30 2 -16 -9 -21 -9 -21 0 0 8 -5 7 -17 -2 -15 -13
-15 -12 -2 9 8 12 15 18 17 12 2 -5 8 -10 14 -10 6 0 7 8 3 18 -5 13 -3 14 5
5 9 -8 17 -7 31 5 10 8 16 19 13 24 -3 4 -1 8 5 8 5 0 12 -6 14 -12 4 -10 6
-10 6 0 1 6 6 12 11 12 15 0 62 -104 50 -108 -6 -2 -6 -11 0 -23 15 -27 -14
-78 -51 -91 -16 -5 -29 -14 -29 -19 0 -4 7 -6 15 -3 11 4 13 2 9 -9 -4 -12 -1
-14 15 -10 12 3 21 10 21 16 0 6 3 8 6 4 8 -8 46 32 39 43 -3 5 0 12 6 15 5 4
8 13 5 21 -3 7 4 18 14 24 11 6 20 15 20 21 0 6 -5 7 -12 3 -7 -4 -8 -3 -4 4
4 6 14 8 23 5 13 -5 15 -2 10 11 -4 9 -3 15 2 11 14 -8 21 24 16 74 -5 45 -28
99 -94 214 -49 87 -50 110 -3 127 22 8 30 15 22 20 -6 4 -12 11 -12 16 0 10
-2 10 -33 -2 -18 -7 -19 -6 -5 12 8 10 21 23 28 27 6 4 12 13 12 18 0 6 -5 7
-12 3 -7 -4 -8 -3 -4 5 6 9 11 9 23 0 10 -9 17 -9 21 -2 4 5 19 13 34 16 20 5
25 12 21 27 -7 25 -18 25 -69 0z m-24 -124 c0 -3 -4 -8 -10 -11 -5 -3 -10 -1
-10 4 0 6 5 11 10 11 6 0 10 -2 10 -4z m-76 -52 c9 -3 16 -11 16 -18 0 -14 53
-117 78 -153 23 -33 52 -114 52 -147 0 -13 -10 -36 -22 -51 l-21 -27 -33 63
c-17 35 -48 97 -69 137 -34 67 -55 160 -34 146 5 -3 9 -1 9 5 0 5 -5 13 -10
16 -8 5 -7 11 1 21 13 16 12 16 33 8z m-127 -491 c4 -10 12 -23 17 -29 74 -77
101 -135 94 -199 -8 -63 -27 -78 -31 -24 -1 13 -5 29 -9 34 -5 6 -18 24 -31
42 -12 18 -34 47 -50 66 -26 33 -43 97 -26 97 5 0 9 7 9 15 0 21 19 19 27 -2z"/>
<path d="M1745 3490 c-3 -5 1 -10 9 -10 9 0 16 5 16 10 0 6 -4 10 -9 10 -6 0
-13 -4 -16 -10z"/>
<path d="M2000 3243 c0 -4 9 -21 21 -38 61 -90 52 -133 -36 -177 -53 -27 -84
-56 -101 -97 -14 -34 -10 -93 7 -99 5 -2 7 -8 3 -13 -3 -5 0 -9 6 -9 7 0 9 15
6 42 -3 23 0 51 6 62 14 27 44 56 58 56 6 0 8 5 5 10 -3 6 3 10 14 10 11 0 23
5 26 10 4 6 10 8 15 5 11 -7 41 35 34 47 -3 5 0 7 8 6 9 -2 13 11 13 47 -1 39
-7 60 -30 94 -28 42 -55 63 -55 44z"/>
<path d="M2752 3207 c-32 -34 -29 -87 7 -126 35 -38 77 -39 117 -4 15 13 24
23 20 23 -4 0 -2 9 4 19 7 13 7 22 0 26 -5 3 -10 15 -10 25 0 27 -47 60 -85
60 -20 0 -39 -8 -53 -23z"/>
<path d="M2638 3055 c-2 -1 -48 -5 -103 -9 -55 -3 -116 -10 -135 -16 -19 -6
-48 -13 -64 -16 -59 -10 -208 -73 -288 -120 -101 -60 -250 -204 -301 -293 -39
-65 -44 -81 -26 -81 5 0 7 -5 4 -10 -4 -6 -11 -8 -16 -5 -11 7 -12 -45 -1 -63
5 -7 27 -14 51 -17 23 -2 47 -7 53 -11 7 -4 8 -3 4 4 -5 8 1 9 21 2 15 -6 48
-12 73 -14 25 -2 45 -5 45 -6 0 -1 20 -3 45 -5 25 -2 56 -7 70 -10 27 -7 105
-16 158 -18 17 -1 32 -4 32 -7 0 -5 59 -11 137 -14 18 0 33 -4 33 -7 0 -3 20
-6 44 -8 25 -1 55 -4 68 -7 13 -2 40 -6 61 -9 20 -3 56 -8 80 -11 23 -3 62 -8
87 -10 71 -9 95 -12 95 -14 0 -1 25 -3 55 -6 30 -2 67 -9 83 -14 18 -6 27 -6
27 2 0 7 4 7 13 1 6 -5 32 -11 57 -12 25 -2 48 -8 52 -14 6 -9 8 -8 8 1 0 7 5
10 11 6 7 -4 33 -9 58 -11 25 -1 53 -6 61 -9 8 -3 42 -8 75 -11 70 -5 110 -10
110 -13 0 -1 16 -3 35 -5 19 -1 58 -6 85 -10 28 -4 66 -8 85 -8 33 -2 35 0 35
30 0 17 3 35 7 39 4 4 3 13 -3 21 -6 7 -9 13 -6 13 9 0 -37 129 -68 190 -54
107 -90 155 -191 256 -183 183 -447 303 -709 320 -38 3 -78 7 -87 8 -9 2 -18
3 -20 1z"/>
<path d="M995 2638 c-39 -40 -126 -146 -193 -235 -106 -142 -143 -188 -187
-237 -27 -30 -166 -198 -211 -256 -137 -177 -226 -331 -218 -377 10 -55 24
-68 68 -63 19 2 79 56 82 74 1 4 11 19 23 32 12 13 21 29 21 34 0 6 5 10 10
10 6 0 10 7 10 15 0 8 3 15 8 15 4 0 18 17 32 37 32 48 50 71 76 99 12 13 20
24 18 26 -8 9 104 109 124 111 11 0 19 4 16 8 -4 7 146 32 203 33 18 1 33 3
33 6 0 5 57 12 125 14 l40 1 0 -45 c-1 -47 -14 -160 -20 -170 -2 -3 -6 -26 -9
-50 -3 -25 -9 -68 -14 -95 -16 -94 5 -155 52 -155 45 1 82 54 89 127 1 13 4
23 7 23 4 0 11 53 14 118 1 12 3 22 6 22 3 0 6 15 7 33 5 84 7 96 16 90 5 -3
4 4 -2 16 -7 12 -9 26 -5 32 4 6 8 29 10 51 2 31 10 48 34 69 17 16 35 29 41
29 5 0 9 5 9 11 0 5 4 8 9 5 5 -3 11 1 15 9 3 8 12 15 21 15 8 0 15 5 15 11 0
5 4 8 9 5 5 -3 11 1 15 9 3 8 12 12 21 9 8 -3 15 -2 15 4 0 6 14 13 30 17 17
4 30 11 30 16 0 6 4 8 9 4 5 -3 12 -1 16 5 4 6 11 8 16 5 5 -4 9 -1 9 5 0 7 6
10 14 7 8 -3 18 5 25 19 6 13 16 24 23 23 10 0 10 -2 1 -6 -7 -2 -13 -9 -13
-15 0 -6 6 -6 15 2 8 6 20 8 27 4 8 -5 8 -1 -2 11 -13 17 -13 18 1 13 10 -4
16 -1 16 8 0 10 -6 13 -16 8 -44 -18 -319 -85 -358 -86 -47 -3 -67 12 -59 45
2 9 1 17 -3 17 -3 0 -7 15 -9 33 -3 44 -10 102 -12 102 -1 0 -3 16 -4 35 -1
20 -6 41 -10 48 -8 13 -16 63 -20 132 -2 19 -6 43 -11 53 -7 16 -54 47 -72 47
-4 0 -39 -33 -78 -72z m69 -318 c9 -47 18 -95 20 -108 3 -13 3 -29 0 -37 -6
-15 -72 -32 -149 -39 -28 -3 -63 -7 -78 -10 -15 -3 -38 -8 -52 -11 -14 -3 -25
-1 -25 4 0 7 73 92 133 153 9 10 17 23 17 28 0 6 4 10 8 10 4 0 15 12 24 28
26 42 70 85 78 75 5 -4 15 -46 24 -93z"/>
<path d="M2600 2203 c-14 -9 -32 -26 -39 -37 -8 -12 -29 -35 -46 -53 -32 -32
-32 -32 -123 -29 -86 2 -92 4 -126 34 -62 54 -125 37 -196 -52 -51 -64 -63
-67 -135 -31 -67 34 -134 53 -170 48 -16 -2 -59 -20 -94 -40 -52 -29 -63 -32
-57 -17 5 11 9 24 10 29 1 6 5 15 8 20 12 19 -35 88 -66 98 -26 9 -32 6 -52
-17 -25 -29 -30 -42 -111 -331 -61 -219 -68 -271 -39 -301 20 -20 46 -28 46
-13 0 4 7 6 15 3 20 -8 47 23 60 69 2 4 3 8 4 10 2 1 5 13 7 27 2 13 8 27 12
30 7 5 14 27 15 48 0 6 4 12 9 12 4 0 8 4 8 10 0 18 34 90 43 90 4 0 6 4 2 9
-3 5 4 12 15 16 11 4 18 10 15 15 -5 8 34 38 57 42 7 2 18 9 23 16 6 7 20 14
33 15 12 0 22 4 22 8 0 6 18 8 145 13 39 2 75 4 80 6 23 6 23 -3 -2 -57 -23
-49 -27 -73 -27 -149 -1 -96 8 -125 53 -176 13 -16 30 -28 38 -28 7 0 13 -3
13 -7 0 -10 58 -9 88 1 12 4 22 12 22 17 0 6 4 8 9 5 5 -3 14 1 21 9 7 8 17
12 23 8 5 -3 7 -2 4 3 -3 6 10 25 29 43 19 19 37 45 40 58 4 12 10 23 16 23 5
0 7 4 4 8 -3 5 1 20 9 35 8 15 10 27 4 27 -6 0 -7 4 -4 10 3 5 7 36 7 69 1 51
5 61 25 72 13 7 23 16 23 21 0 4 7 8 15 8 8 0 15 5 15 10 0 6 7 10 15 10 9 0
18 7 22 16 3 9 12 13 21 9 9 -3 13 -3 9 1 -9 9 30 37 42 29 5 -3 12 3 14 12 4
15 5 15 6 2 0 -9 -26 -99 -59 -200 -33 -101 -60 -193 -60 -204 1 -31 21 -51
66 -62 38 -9 42 -8 62 16 11 14 21 31 22 36 1 6 9 18 17 28 9 9 13 17 10 17
-10 0 20 35 86 100 63 63 114 92 126 71 9 -13 5 -81 -9 -160 -16 -90 -13 -117
17 -145 22 -20 30 -23 46 -14 27 14 61 50 65 68 2 8 8 18 14 21 5 3 9 9 9 13
-5 26 56 103 141 179 72 64 75 66 82 60 3 -4 6 -1 6 4 0 16 50 8 61 -8 16 -27
34 -52 47 -65 6 -7 12 -15 12 -18 0 -4 14 -20 30 -38 17 -17 30 -35 30 -40 0
-5 5 -6 10 -3 6 3 10 -1 10 -10 0 -9 5 -13 10 -10 6 3 10 2 10 -4 0 -11 64
-44 86 -44 8 0 14 -5 14 -11 0 -6 5 -5 12 2 17 17 36 15 59 -7 11 -10 30 -17
42 -16 37 5 120 36 149 56 14 11 31 19 37 19 6 0 11 5 11 12 0 6 3 9 6 5 4 -3
12 -1 20 6 34 30 44 37 44 30 0 -4 5 0 11 10 5 9 17 17 24 17 8 0 15 3 15 8 0
12 59 34 75 28 8 -3 26 -30 40 -61 24 -51 43 -74 90 -113 8 -7 15 -11 15 -8 0
3 13 1 28 -5 18 -6 38 -6 53 0 30 11 100 77 92 85 -4 3 0 6 8 6 8 0 20 9 27
20 7 11 8 20 3 20 -6 0 -15 -8 -20 -17 -6 -10 -11 -13 -11 -7 0 6 7 17 15 24
8 7 15 16 15 21 0 5 -22 -7 -49 -26 -51 -37 -100 -46 -120 -21 -19 22 -22 96
-5 128 20 38 14 72 -20 115 -26 32 -32 35 -68 30 -49 -7 -166 -62 -260 -123
-75 -48 -74 -41 3 38 21 20 40 34 43 31 3 -4 6 2 6 12 0 10 3 16 6 13 3 -3 16
5 30 19 13 13 29 21 34 18 6 -3 10 -2 10 3 0 10 64 42 85 42 8 0 29 -9 47 -19
17 -11 36 -17 42 -13 6 4 16 7 21 7 6 1 9 6 8 13 -2 7 1 12 6 12 21 0 -16 96
-48 124 -13 12 -41 21 -74 24 -46 4 -61 -1 -132 -38 -86 -45 -180 -115 -234
-175 -56 -62 -133 -168 -151 -207 l-16 -36 -36 34 c-20 18 -68 88 -108 154
-76 128 -103 155 -159 154 -55 0 -103 -29 -191 -115 -44 -43 -82 -79 -84 -79
-1 0 -3 6 -4 13 -2 12 -8 56 -11 69 0 3 -13 20 -27 37 -44 52 -122 49 -180 -7
-29 -27 -36 -18 -18 23 18 44 18 82 -1 136 -17 46 -41 79 -59 79 -6 0 -23 -8
-36 -17z m-190 -143 c0 -5 5 -10 11 -10 5 0 8 4 5 9 -3 5 5 9 19 9 l24 0 -29
-22 c-109 -80 -123 -88 -117 -73 3 10 2 17 -3 17 -9 0 -6 32 6 51 3 6 15 9 25
6 10 -3 22 0 26 5 4 7 1 8 -7 3 -9 -5 -11 -4 -6 3 9 15 46 16 46 2z m-229
-159 c10 -1 18 -41 8 -41 -5 0 -6 -14 -2 -30 13 -67 -56 -172 -97 -150 -16 8
-18 20 -16 71 2 39 8 66 17 73 8 6 15 18 17 26 2 8 11 22 22 31 11 9 17 19 14
22 -3 3 2 4 13 2 10 -2 21 -4 24 -4z"/>
<path d="M805 1262 c-19 -3 -20 -10 -20 -137 1 -118 3 -137 19 -152 10 -10 16
-12 12 -5 -5 7 -1 12 11 12 13 0 18 8 18 25 0 14 -2 25 -5 25 -3 0 -5 22 -5
50 0 27 4 50 8 50 5 0 5 5 1 12 -9 14 -10 60 -2 74 11 16 -16 49 -37 46z"/>
<path d="M897 1262 c-17 -3 -17 -5 -2 -29 14 -21 16 -45 13 -134 -3 -104 -2
-109 19 -120 13 -7 26 -9 30 -5 10 10 11 46 1 46 -5 0 -4 9 2 20 8 15 8 20 -2
20 -9 0 -9 3 -1 11 8 8 8 20 3 35 -6 15 -5 24 3 27 6 2 34 -31 61 -72 27 -42
51 -77 52 -79 1 -2 10 -5 21 -6 27 -5 43 12 34 37 -4 12 -6 71 -5 130 2 103 1
109 -19 116 -12 5 -25 7 -29 5 -4 -3 -5 -47 -3 -99 1 -52 0 -93 -5 -90 -4 2
-34 45 -66 94 -58 89 -72 101 -107 93z"/>
<path d="M1193 1132 c1 -75 5 -142 9 -147 8 -12 69 -12 111 0 25 7 86 55 70
55 -3 0 -1 6 4 13 5 6 8 22 7 35 0 12 2 22 7 22 16 0 -35 101 -60 120 -24 17
-41 21 -123 34 l-26 4 1 -136z m125 52 c40 -36 30 -114 -18 -139 -52 -27 -55
-23 -54 72 1 49 2 89 3 91 3 10 49 -6 69 -24z"/>
<path d="M1843 1263 c-10 -4 -10 -11 1 -31 10 -19 13 -59 12 -132 -2 -107 3
-127 36 -127 14 0 16 12 15 88 -2 84 -2 87 15 72 10 -9 18 -20 18 -25 0 -8 9
-20 38 -53 6 -7 12 -18 12 -24 0 -6 5 -11 10 -11 6 0 10 -5 10 -11 0 -15 22
-33 43 -37 20 -3 19 -14 21 133 2 139 -3 166 -34 158 -19 -5 -20 -11 -17 -99
2 -52 1 -94 -2 -94 -3 0 -34 42 -68 94 -58 88 -81 108 -110 99z"/>
<path d="M2345 1260 c-66 -14 -104 -63 -107 -134 -2 -51 29 -113 63 -128 16
-7 29 -16 29 -19 0 -3 20 -6 45 -6 25 0 45 3 45 8 0 5 6 6 13 4 6 -3 17 3 24
14 16 25 -7 62 -28 44 -26 -21 -84 -20 -113 2 -13 10 -19 29 -21 65 -1 27 1
50 5 50 4 0 10 9 13 20 3 11 9 20 14 19 19 -3 34 2 29 10 -8 13 68 1 77 -13 5
-8 10 -7 17 4 13 19 12 23 -2 42 -15 19 -61 27 -103 18z"/>
<path d="M2509 1263 c-10 -2 -15 -12 -13 -26 2 -12 5 -60 8 -107 2 -51 10 -97
20 -115 9 -16 16 -25 16 -20 0 6 4 4 8 -3 12 -18 66 -23 102 -9 21 8 33 8 38
2 8 -12 27 -13 37 -3 4 4 2 21 -3 38 -6 17 -8 29 -4 26 4 -2 7 22 7 55 0 32
-4 59 -8 59 -5 0 -5 5 -1 12 13 21 11 69 -3 83 -7 7 -21 11 -30 9 -16 -4 -18
-16 -15 -95 4 -97 -7 -131 -47 -142 -47 -12 -89 71 -57 112 8 11 8 13 -1 8 -9
-6 -11 6 -9 43 2 35 -1 56 -11 66 -8 7 -15 13 -16 13 -1 -1 -9 -3 -18 -6z"/>
<path d="M2955 1263 c-30 -7 -65 -44 -65 -68 0 -25 40 -88 55 -89 15 0 47 -44
40 -56 -14 -23 -42 -29 -68 -15 -26 13 -27 13 -27 -14 0 -32 34 -52 80 -48 28
2 72 36 64 49 -3 4 -1 8 5 8 5 0 8 8 6 18 -2 9 -4 23 -4 29 -1 7 -23 34 -50
59 -46 43 -48 47 -32 63 11 13 21 15 34 9 9 -5 17 -5 17 -1 0 4 4 2 9 -5 6
-11 9 -9 13 5 10 37 -32 66 -77 56z"/>
<path d="M3109 1263 c-13 -3 -16 -24 -16 -138 0 -77 4 -135 9 -135 5 0 7 -4 4
-9 -3 -5 5 -8 18 -8 23 0 23 0 23 138 0 141 -4 159 -38 152z"/>
<path d="M3213 1262 c-21 -3 -22 -5 -7 -27 13 -19 15 -48 13 -137 -2 -84 0
-112 9 -111 7 2 12 -1 12 -6 0 -6 8 -9 18 -8 15 1 16 9 12 70 -3 38 -1 71 3
74 5 3 3 9 -4 14 -9 6 -10 9 -2 9 6 0 22 -15 34 -32 13 -18 27 -35 31 -36 5
-2 6 -8 2 -13 -3 -5 -1 -9 3 -9 5 0 19 -18 33 -40 17 -28 30 -38 45 -36 16 3
20 10 19 40 0 20 4 36 10 36 7 0 8 3 1 8 -5 4 -10 14 -10 22 0 8 5 18 10 22 7
5 6 8 -1 8 -11 0 -13 78 -1 97 4 6 3 14 -3 18 -5 3 -10 14 -10 24 0 14 -6 17
-23 14 -23 -4 -23 -8 -22 -99 1 -52 1 -94 -1 -94 -1 0 -24 33 -51 73 -26 39
-54 78 -60 85 -7 7 -13 17 -13 22 0 11 -21 17 -47 12z"/>
<path d="M3503 1165 c2 -55 0 -117 -3 -137 -6 -33 -5 -38 19 -46 37 -14 71
-13 71 1 0 9 2 9 8 0 8 -12 36 -12 48 0 4 3 8 18 9 32 3 25 2 25 -50 19 l-54
-7 6 29 c3 16 6 35 6 41 0 9 4 10 14 2 17 -15 60 -3 60 16 0 8 -4 15 -9 15 -5
0 -6 5 -3 10 4 6 -8 10 -28 10 -26 0 -36 5 -40 20 -8 31 17 50 52 40 33 -9 43
2 31 34 -5 16 -17 19 -73 20 l-67 1 3 -100z"/>
<path d="M1447 1128 c1 -73 3 -135 4 -138 1 -3 1 -8 1 -11 -1 -3 11 -5 25 -4
l26 1 1 139 0 140 -29 3 -30 3 2 -133z"/>
<path d="M1600 1126 c-61 -126 -64 -135 -46 -146 14 -9 16 -9 10 2 -6 10 -5
10 9 0 14 -12 19 -12 31 1 8 8 12 17 9 21 -3 3 0 12 7 21 7 8 9 15 4 15 -4 0
1 6 11 14 13 9 28 11 47 5 16 -4 31 -7 35 -6 3 1 11 -12 17 -30 16 -46 29 -57
54 -44 10 6 23 7 28 3 5 -4 1 2 -8 13 -9 11 -42 75 -74 143 -32 67 -61 122
-64 122 -3 0 -34 -61 -70 -134z m87 -12 c-3 -4 -14 -3 -24 1 -12 5 -14 9 -5
12 6 3 12 12 13 21 0 13 3 11 11 -6 6 -12 8 -25 5 -28z"/>
<path d="M2787 1123 c1 -136 1 -136 27 -150 15 -8 26 -10 25 -6 -1 4 0 10 1
13 5 14 4 150 -2 150 -4 0 -3 12 0 28 7 24 7 49 3 90 0 6 -13 12 -28 12 l-28
0 2 -137z"/>
<path d="M1976 710 c-26 -17 -53 -35 -59 -40 -7 -6 -24 -19 -39 -31 -41 -31
-33 -105 12 -104 11 0 15 12 14 52 0 35 3 50 10 45 6 -5 27 -7 46 -6 19 0 41
-3 48 -9 6 -5 12 -6 12 -2 0 4 7 2 15 -5 8 -7 15 -9 15 -4 0 4 5 3 12 -4 7 -7
20 -12 30 -12 10 0 18 -4 18 -10 0 -5 8 -10 18 -10 10 0 23 -5 30 -12 7 -7 12
-8 12 -4 0 5 7 3 15 -4 8 -7 15 -9 15 -4 0 5 4 4 8 -2 4 -7 18 -14 32 -15 14
-2 28 -8 32 -14 5 -7 8 -6 8 1 0 6 16 10 36 9 27 -2 34 1 29 13 -4 12 -3 13 9
3 19 -16 59 -4 52 15 -5 12 -2 12 15 3 16 -8 20 -8 15 0 -5 7 4 14 24 17 17 4
33 11 37 17 4 6 1 7 -7 2 -9 -5 -11 -4 -6 4 6 9 11 9 21 1 10 -8 23 -1 55 30
23 22 37 40 31 40 -6 0 -8 6 -6 13 7 19 -21 49 -42 45 -14 -3 -17 -11 -15 -40
6 -70 -47 -80 -176 -34 -37 14 -105 38 -152 55 -111 40 -161 40 -224 1z m70
-18 c3 3 22 2 42 -3 20 -6 48 -12 62 -15 13 -3 27 -8 30 -12 3 -4 14 -9 25
-10 11 -2 25 -8 32 -14 7 -5 17 -7 23 -3 5 3 10 2 10 -4 0 -5 15 -13 33 -16
17 -4 37 -10 42 -14 10 -6 17 -8 37 -10 9 -1 9 -4 1 -12 -29 -29 -128 -7 -282
63 -24 11 -58 22 -77 25 -18 3 -35 12 -39 21 -4 12 -3 13 10 2 14 -12 20 -7
16 14 -1 5 5 3 14 -4 8 -7 18 -10 21 -8z m489 -72 c-3 -5 -12 -10 -18 -10 -7
0 -6 4 3 10 19 12 23 12 15 0z m-145 -70 c0 -5 -5 -10 -11 -10 -5 0 -7 5 -4
10 3 6 8 10 11 10 2 0 4 -4 4 -10z"/>
</g>
</svg>
